<svg xmlns="http://www.w3.org/2000/svg" viewBox="1372.6 537.9 183.8 186.1">
  <defs>
    <style>
      .cls-1, .cls-3, .cls-4 {
        fill: none;
      }

      .cls-2 {
        clip-path: url(#clip-path);
      }

      .cls-3 {
        stroke: #0dd;
      }

      .cls-4 {
        stroke: rgba(249,181,255,0.79);
      }
    </style>
    <clipPath>
      <rect class="cls-1" width="124" height="109"/>
    </clipPath>
  </defs>
  <g data-name="Group 21">
    <g data-name="Group 2" transform="translate(-55 60)matrix(-0.799 0.602 -0.602 -0.799 3136.682 208.827)">
      <g data-name="Repeat Grid 4" class="cls-2" transform="translate(1432.5 633.5)">
          <line data-name="Line 3" class="cls-3" y1="10" x2="31" transform="translate(-1327.5 -509.5)translate(1327.5 509.5)"/>
          <line data-name="Line 3" class="cls-3" y1="10" x2="31" transform="translate(-1311.5 -509.5)translate(1327.5 509.5)"/>
          <line data-name="Line 3" class="cls-3" y1="10" x2="31" transform="translate(-1295.5 -509.5)translate(1327.5 509.5)"/>
          <line data-name="Line 3" class="cls-3" y1="10" x2="31" transform="translate(-1279.5 -509.5)translate(1327.5 509.5)"/>
          <line data-name="Line 3" class="cls-3" y1="10" x2="31" transform="translate(-1263.5 -509.5)translate(1327.5 509.5)"/>
          <line data-name="Line 3" class="cls-3" y1="10" x2="31" transform="translate(-1247.5 -509.5)translate(1327.5 509.5)"/>
          <line data-name="Line 3" class="cls-3" y1="10" x2="31" transform="translate(-1327.5 -501.5)translate(1327.5 509.5)"/>
          <line data-name="Line 3" class="cls-3" y1="10" x2="31" transform="translate(-1311.5 -501.5)translate(1327.5 509.5)"/>
          <line data-name="Line 3" class="cls-3" y1="10" x2="31" transform="translate(-1295.5 -501.5)translate(1327.5 509.5)"/>
          <line data-name="Line 3" class="cls-3" y1="10" x2="31" transform="translate(-1279.5 -501.5)translate(1327.5 509.5)"/>
          <line data-name="Line 3" class="cls-3" y1="10" x2="31" transform="translate(-1263.5 -501.5)translate(1327.5 509.5)"/>
          <line data-name="Line 3" class="cls-3" y1="10" x2="31" transform="translate(-1247.5 -501.5)translate(1327.5 509.5)"/>
          <line data-name="Line 3" class="cls-3" y1="10" x2="31" transform="translate(-1327.5 -493.5)translate(1327.5 509.5)"/>
          <line data-name="Line 3" class="cls-3" y1="10" x2="31" transform="translate(-1311.5 -493.5)translate(1327.5 509.5)"/>
          <line data-name="Line 3" class="cls-3" y1="10" x2="31" transform="translate(-1295.5 -493.5)translate(1327.5 509.5)"/>
          <line data-name="Line 3" class="cls-3" y1="10" x2="31" transform="translate(-1279.5 -493.5)translate(1327.5 509.5)"/>
          <line data-name="Line 3" class="cls-3" y1="10" x2="31" transform="translate(-1263.5 -493.5)translate(1327.5 509.5)"/>
          <line data-name="Line 3" class="cls-3" y1="10" x2="31" transform="translate(-1247.5 -493.5)translate(1327.5 509.5)"/>
          <line data-name="Line 3" class="cls-3" y1="10" x2="31" transform="translate(-1327.5 -485.5)translate(1327.5 509.5)"/>
          <line data-name="Line 3" class="cls-3" y1="10" x2="31" transform="translate(-1311.5 -485.5)translate(1327.5 509.5)"/>
          <line data-name="Line 3" class="cls-3" y1="10" x2="31" transform="translate(-1295.5 -485.5)translate(1327.5 509.5)"/>
          <line data-name="Line 3" class="cls-3" y1="10" x2="31" transform="translate(-1279.5 -485.5)translate(1327.5 509.5)"/>
          <line data-name="Line 3" class="cls-3" y1="10" x2="31" transform="translate(-1263.5 -485.5)translate(1327.5 509.5)"/>
          <line data-name="Line 3" class="cls-3" y1="10" x2="31" transform="translate(-1247.5 -485.5)translate(1327.5 509.5)"/>
          <line data-name="Line 3" class="cls-3" y1="10" x2="31" transform="translate(-1327.5 -477.5)translate(1327.5 509.5)"/>
          <line data-name="Line 3" class="cls-3" y1="10" x2="31" transform="translate(-1311.5 -477.5)translate(1327.5 509.5)"/>
          <line data-name="Line 3" class="cls-3" y1="10" x2="31" transform="translate(-1295.5 -477.5)translate(1327.5 509.5)"/>
          <line data-name="Line 3" class="cls-3" y1="10" x2="31" transform="translate(-1279.5 -477.5)translate(1327.5 509.5)"/>
          <line data-name="Line 3" class="cls-3" y1="10" x2="31" transform="translate(-1263.5 -477.5)translate(1327.5 509.5)"/>
          <line data-name="Line 3" class="cls-3" y1="10" x2="31" transform="translate(-1247.5 -477.5)translate(1327.5 509.5)"/>
          <line data-name="Line 3" class="cls-3" y1="10" x2="31" transform="translate(-1327.5 -469.5)translate(1327.5 509.5)"/>
          <line data-name="Line 3" class="cls-3" y1="10" x2="31" transform="translate(-1311.5 -469.5)translate(1327.5 509.5)"/>
          <line data-name="Line 3" class="cls-3" y1="10" x2="31" transform="translate(-1295.5 -469.5)translate(1327.5 509.5)"/>
          <line data-name="Line 3" class="cls-3" y1="10" x2="31" transform="translate(-1279.5 -469.5)translate(1327.5 509.5)"/>
          <line data-name="Line 3" class="cls-3" y1="10" x2="31" transform="translate(-1263.5 -469.5)translate(1327.5 509.5)"/>
          <line data-name="Line 3" class="cls-3" y1="10" x2="31" transform="translate(-1247.5 -469.5)translate(1327.5 509.5)"/>
          <line data-name="Line 3" class="cls-3" y1="10" x2="31" transform="translate(-1327.5 -461.5)translate(1327.5 509.5)"/>
          <line data-name="Line 3" class="cls-3" y1="10" x2="31" transform="translate(-1311.5 -461.5)translate(1327.5 509.5)"/>
          <line data-name="Line 3" class="cls-3" y1="10" x2="31" transform="translate(-1295.5 -461.5)translate(1327.5 509.5)"/>
          <line data-name="Line 3" class="cls-3" y1="10" x2="31" transform="translate(-1279.5 -461.5)translate(1327.5 509.5)"/>
          <line data-name="Line 3" class="cls-3" y1="10" x2="31" transform="translate(-1263.5 -461.5)translate(1327.5 509.5)"/>
          <line data-name="Line 3" class="cls-3" y1="10" x2="31" transform="translate(-1247.5 -461.5)translate(1327.5 509.5)"/>
          <line data-name="Line 3" class="cls-3" y1="10" x2="31" transform="translate(-1327.5 -453.5)translate(1327.5 509.5)"/>
          <line data-name="Line 3" class="cls-3" y1="10" x2="31" transform="translate(-1311.5 -453.5)translate(1327.5 509.5)"/>
          <line data-name="Line 3" class="cls-3" y1="10" x2="31" transform="translate(-1295.5 -453.5)translate(1327.5 509.5)"/>
          <line data-name="Line 3" class="cls-3" y1="10" x2="31" transform="translate(-1279.5 -453.5)translate(1327.5 509.5)"/>
          <line data-name="Line 3" class="cls-3" y1="10" x2="31" transform="translate(-1263.5 -453.5)translate(1327.5 509.5)"/>
          <line data-name="Line 3" class="cls-3" y1="10" x2="31" transform="translate(-1247.5 -453.5)translate(1327.5 509.5)"/>
          <line data-name="Line 3" class="cls-3" y1="10" x2="31" transform="translate(-1327.5 -445.5)translate(1327.5 509.5)"/>
          <line data-name="Line 3" class="cls-3" y1="10" x2="31" transform="translate(-1311.5 -445.5)translate(1327.5 509.5)"/>
          <line data-name="Line 3" class="cls-3" y1="10" x2="31" transform="translate(-1295.5 -445.5)translate(1327.5 509.5)"/>
          <line data-name="Line 3" class="cls-3" y1="10" x2="31" transform="translate(-1279.5 -445.5)translate(1327.5 509.5)"/>
          <line data-name="Line 3" class="cls-3" y1="10" x2="31" transform="translate(-1263.5 -445.5)translate(1327.5 509.5)"/>
          <line data-name="Line 3" class="cls-3" y1="10" x2="31" transform="translate(-1247.5 -445.5)translate(1327.5 509.5)"/>
          <line data-name="Line 3" class="cls-3" y1="10" x2="31" transform="translate(-1327.5 -437.5)translate(1327.5 509.5)"/>
          <line data-name="Line 3" class="cls-3" y1="10" x2="31" transform="translate(-1311.5 -437.5)translate(1327.5 509.5)"/>
          <line data-name="Line 3" class="cls-3" y1="10" x2="31" transform="translate(-1295.5 -437.5)translate(1327.5 509.5)"/>
          <line data-name="Line 3" class="cls-3" y1="10" x2="31" transform="translate(-1279.5 -437.5)translate(1327.5 509.5)"/>
          <line data-name="Line 3" class="cls-3" y1="10" x2="31" transform="translate(-1263.5 -437.5)translate(1327.5 509.5)"/>
          <line data-name="Line 3" class="cls-3" y1="10" x2="31" transform="translate(-1247.5 -437.5)translate(1327.5 509.5)"/>
          <line data-name="Line 3" class="cls-3" y1="10" x2="31" transform="translate(-1327.5 -429.5)translate(1327.5 509.5)"/>
          <line data-name="Line 3" class="cls-3" y1="10" x2="31" transform="translate(-1311.5 -429.5)translate(1327.5 509.5)"/>
          <line data-name="Line 3" class="cls-3" y1="10" x2="31" transform="translate(-1295.5 -429.5)translate(1327.5 509.5)"/>
          <line data-name="Line 3" class="cls-3" y1="10" x2="31" transform="translate(-1279.5 -429.5)translate(1327.5 509.5)"/>
          <line data-name="Line 3" class="cls-3" y1="10" x2="31" transform="translate(-1263.5 -429.5)translate(1327.5 509.5)"/>
          <line data-name="Line 3" class="cls-3" y1="10" x2="31" transform="translate(-1247.5 -429.5)translate(1327.5 509.5)"/>
          <line data-name="Line 3" class="cls-3" y1="10" x2="31" transform="translate(-1327.5 -421.5)translate(1327.5 509.5)"/>
          <line data-name="Line 3" class="cls-3" y1="10" x2="31" transform="translate(-1311.5 -421.5)translate(1327.5 509.5)"/>
          <line data-name="Line 3" class="cls-3" y1="10" x2="31" transform="translate(-1295.5 -421.5)translate(1327.5 509.5)"/>
          <line data-name="Line 3" class="cls-3" y1="10" x2="31" transform="translate(-1279.5 -421.5)translate(1327.5 509.5)"/>
          <line data-name="Line 3" class="cls-3" y1="10" x2="31" transform="translate(-1263.5 -421.5)translate(1327.5 509.5)"/>
          <line data-name="Line 3" class="cls-3" y1="10" x2="31" transform="translate(-1247.5 -421.5)translate(1327.5 509.5)"/>
      </g>
      <g data-name="Repeat Grid 5" class="cls-2" transform="translate(1462.5 625.5)">
          <line data-name="Line 3" class="cls-4" y1="10" x2="31" transform="translate(-1327.5 -509.5)translate(1327.5 509.5)"/>
          <line data-name="Line 3" class="cls-4" y1="10" x2="31" transform="translate(-1311.5 -509.5)translate(1327.5 509.5)"/>
          <line data-name="Line 3" class="cls-4" y1="10" x2="31" transform="translate(-1295.5 -509.5)translate(1327.5 509.5)"/>
          <line data-name="Line 3" class="cls-4" y1="10" x2="31" transform="translate(-1279.5 -509.5)translate(1327.5 509.5)"/>
          <line data-name="Line 3" class="cls-4" y1="10" x2="31" transform="translate(-1263.5 -509.5)translate(1327.5 509.5)"/>
          <line data-name="Line 3" class="cls-4" y1="10" x2="31" transform="translate(-1247.5 -509.5)translate(1327.5 509.5)"/>
          <line data-name="Line 3" class="cls-4" y1="10" x2="31" transform="translate(-1327.5 -501.5)translate(1327.5 509.5)"/>
          <line data-name="Line 3" class="cls-4" y1="10" x2="31" transform="translate(-1311.5 -501.5)translate(1327.5 509.5)"/>
          <line data-name="Line 3" class="cls-4" y1="10" x2="31" transform="translate(-1295.5 -501.5)translate(1327.5 509.5)"/>
          <line data-name="Line 3" class="cls-4" y1="10" x2="31" transform="translate(-1279.5 -501.5)translate(1327.5 509.5)"/>
          <line data-name="Line 3" class="cls-4" y1="10" x2="31" transform="translate(-1263.5 -501.5)translate(1327.5 509.5)"/>
          <line data-name="Line 3" class="cls-4" y1="10" x2="31" transform="translate(-1247.5 -501.5)translate(1327.5 509.5)"/>
          <line data-name="Line 3" class="cls-4" y1="10" x2="31" transform="translate(-1327.5 -493.5)translate(1327.5 509.5)"/>
          <line data-name="Line 3" class="cls-4" y1="10" x2="31" transform="translate(-1311.5 -493.5)translate(1327.5 509.5)"/>
          <line data-name="Line 3" class="cls-4" y1="10" x2="31" transform="translate(-1295.5 -493.5)translate(1327.5 509.5)"/>
          <line data-name="Line 3" class="cls-4" y1="10" x2="31" transform="translate(-1279.5 -493.5)translate(1327.5 509.5)"/>
          <line data-name="Line 3" class="cls-4" y1="10" x2="31" transform="translate(-1263.5 -493.5)translate(1327.5 509.5)"/>
          <line data-name="Line 3" class="cls-4" y1="10" x2="31" transform="translate(-1247.5 -493.5)translate(1327.5 509.5)"/>
          <line data-name="Line 3" class="cls-4" y1="10" x2="31" transform="translate(-1327.5 -485.5)translate(1327.5 509.5)"/>
          <line data-name="Line 3" class="cls-4" y1="10" x2="31" transform="translate(-1311.5 -485.5)translate(1327.5 509.5)"/>
          <line data-name="Line 3" class="cls-4" y1="10" x2="31" transform="translate(-1295.5 -485.5)translate(1327.5 509.5)"/>
          <line data-name="Line 3" class="cls-4" y1="10" x2="31" transform="translate(-1279.5 -485.5)translate(1327.5 509.5)"/>
          <line data-name="Line 3" class="cls-4" y1="10" x2="31" transform="translate(-1263.5 -485.5)translate(1327.5 509.5)"/>
          <line data-name="Line 3" class="cls-4" y1="10" x2="31" transform="translate(-1247.5 -485.5)translate(1327.5 509.5)"/>
          <line data-name="Line 3" class="cls-4" y1="10" x2="31" transform="translate(-1327.5 -477.5)translate(1327.5 509.5)"/>
          <line data-name="Line 3" class="cls-4" y1="10" x2="31" transform="translate(-1311.5 -477.5)translate(1327.5 509.5)"/>
          <line data-name="Line 3" class="cls-4" y1="10" x2="31" transform="translate(-1295.5 -477.5)translate(1327.5 509.5)"/>
          <line data-name="Line 3" class="cls-4" y1="10" x2="31" transform="translate(-1279.5 -477.5)translate(1327.5 509.5)"/>
          <line data-name="Line 3" class="cls-4" y1="10" x2="31" transform="translate(-1263.5 -477.5)translate(1327.5 509.5)"/>
          <line data-name="Line 3" class="cls-4" y1="10" x2="31" transform="translate(-1247.5 -477.5)translate(1327.5 509.5)"/>
          <line data-name="Line 3" class="cls-4" y1="10" x2="31" transform="translate(-1327.5 -469.5)translate(1327.5 509.5)"/>
          <line data-name="Line 3" class="cls-4" y1="10" x2="31" transform="translate(-1311.5 -469.5)translate(1327.5 509.5)"/>
          <line data-name="Line 3" class="cls-4" y1="10" x2="31" transform="translate(-1295.5 -469.5)translate(1327.5 509.5)"/>
          <line data-name="Line 3" class="cls-4" y1="10" x2="31" transform="translate(-1279.5 -469.5)translate(1327.5 509.5)"/>
          <line data-name="Line 3" class="cls-4" y1="10" x2="31" transform="translate(-1263.5 -469.5)translate(1327.5 509.5)"/>
          <line data-name="Line 3" class="cls-4" y1="10" x2="31" transform="translate(-1247.5 -469.5)translate(1327.5 509.5)"/>
          <line data-name="Line 3" class="cls-4" y1="10" x2="31" transform="translate(-1327.5 -461.5)translate(1327.5 509.5)"/>
          <line data-name="Line 3" class="cls-4" y1="10" x2="31" transform="translate(-1311.5 -461.5)translate(1327.5 509.5)"/>
          <line data-name="Line 3" class="cls-4" y1="10" x2="31" transform="translate(-1295.5 -461.5)translate(1327.5 509.5)"/>
          <line data-name="Line 3" class="cls-4" y1="10" x2="31" transform="translate(-1279.5 -461.5)translate(1327.5 509.5)"/>
          <line data-name="Line 3" class="cls-4" y1="10" x2="31" transform="translate(-1263.5 -461.5)translate(1327.5 509.5)"/>
          <line data-name="Line 3" class="cls-4" y1="10" x2="31" transform="translate(-1247.5 -461.5)translate(1327.5 509.5)"/>
          <line data-name="Line 3" class="cls-4" y1="10" x2="31" transform="translate(-1327.5 -453.5)translate(1327.5 509.5)"/>
          <line data-name="Line 3" class="cls-4" y1="10" x2="31" transform="translate(-1311.5 -453.5)translate(1327.5 509.5)"/>
          <line data-name="Line 3" class="cls-4" y1="10" x2="31" transform="translate(-1295.5 -453.5)translate(1327.5 509.5)"/>
          <line data-name="Line 3" class="cls-4" y1="10" x2="31" transform="translate(-1279.5 -453.5)translate(1327.5 509.5)"/>
          <line data-name="Line 3" class="cls-4" y1="10" x2="31" transform="translate(-1263.5 -453.5)translate(1327.5 509.5)"/>
          <line data-name="Line 3" class="cls-4" y1="10" x2="31" transform="translate(-1247.5 -453.5)translate(1327.5 509.5)"/>
          <line data-name="Line 3" class="cls-4" y1="10" x2="31" transform="translate(-1327.5 -445.5)translate(1327.5 509.5)"/>
          <line data-name="Line 3" class="cls-4" y1="10" x2="31" transform="translate(-1311.5 -445.5)translate(1327.5 509.5)"/>
          <line data-name="Line 3" class="cls-4" y1="10" x2="31" transform="translate(-1295.5 -445.5)translate(1327.5 509.5)"/>
          <line data-name="Line 3" class="cls-4" y1="10" x2="31" transform="translate(-1279.5 -445.5)translate(1327.5 509.5)"/>
          <line data-name="Line 3" class="cls-4" y1="10" x2="31" transform="translate(-1263.5 -445.5)translate(1327.5 509.5)"/>
          <line data-name="Line 3" class="cls-4" y1="10" x2="31" transform="translate(-1247.5 -445.5)translate(1327.5 509.5)"/>
          <line data-name="Line 3" class="cls-4" y1="10" x2="31" transform="translate(-1327.5 -437.5)translate(1327.5 509.5)"/>
          <line data-name="Line 3" class="cls-4" y1="10" x2="31" transform="translate(-1311.5 -437.5)translate(1327.5 509.5)"/>
          <line data-name="Line 3" class="cls-4" y1="10" x2="31" transform="translate(-1295.5 -437.5)translate(1327.5 509.5)"/>
          <line data-name="Line 3" class="cls-4" y1="10" x2="31" transform="translate(-1279.5 -437.5)translate(1327.5 509.5)"/>
          <line data-name="Line 3" class="cls-4" y1="10" x2="31" transform="translate(-1263.5 -437.5)translate(1327.5 509.5)"/>
          <line data-name="Line 3" class="cls-4" y1="10" x2="31" transform="translate(-1247.5 -437.5)translate(1327.5 509.5)"/>
          <line data-name="Line 3" class="cls-4" y1="10" x2="31" transform="translate(-1327.5 -429.5)translate(1327.5 509.5)"/>
          <line data-name="Line 3" class="cls-4" y1="10" x2="31" transform="translate(-1311.5 -429.5)translate(1327.5 509.5)"/>
          <line data-name="Line 3" class="cls-4" y1="10" x2="31" transform="translate(-1295.5 -429.5)translate(1327.5 509.5)"/>
          <line data-name="Line 3" class="cls-4" y1="10" x2="31" transform="translate(-1279.5 -429.5)translate(1327.5 509.5)"/>
          <line data-name="Line 3" class="cls-4" y1="10" x2="31" transform="translate(-1263.5 -429.5)translate(1327.5 509.5)"/>
          <line data-name="Line 3" class="cls-4" y1="10" x2="31" transform="translate(-1247.5 -429.5)translate(1327.5 509.5)"/>
          <line data-name="Line 3" class="cls-4" y1="10" x2="31" transform="translate(-1327.5 -421.5)translate(1327.5 509.5)"/>
          <line data-name="Line 3" class="cls-4" y1="10" x2="31" transform="translate(-1311.5 -421.5)translate(1327.5 509.5)"/>
          <line data-name="Line 3" class="cls-4" y1="10" x2="31" transform="translate(-1295.5 -421.5)translate(1327.5 509.5)"/>
          <line data-name="Line 3" class="cls-4" y1="10" x2="31" transform="translate(-1279.5 -421.5)translate(1327.5 509.5)"/>
          <line data-name="Line 3" class="cls-4" y1="10" x2="31" transform="translate(-1263.5 -421.5)translate(1327.5 509.5)"/>
          <line data-name="Line 3" class="cls-4" y1="10" x2="31" transform="translate(-1247.5 -421.5)translate(1327.5 509.5)"/>
      </g>
    </g>
  </g>
</svg>